<svg width="188" height="21" viewBox="0 0 188 21" fill="none" xmlns="http://www.w3.org/2000/svg">
<path d="M32 2H36.0408V8.57547H42.9592V2H47V19H42.9592V12.1038H36.0408V19H32V2Z" fill="white"/>
<path d="M58.3137 20C57.1844 20 56.1072 19.8267 55.0823 19.4801C54.0783 19.1119 53.2 18.5704 52.447 17.8556C51.6941 17.1191 51.0979 16.1985 50.6587 15.0938C50.2196 13.9675 50 12.657 50 11.1624V10.5126C50 9.08302 50.2092 7.83752 50.6273 6.77617C51.0457 5.7148 51.6209 4.83752 52.3528 4.1444C53.085 3.4296 53.9319 2.8989 54.8941 2.55235C55.8562 2.1841 56.8913 2 57.9999 2C60.6143 2 62.6012 2.7148 63.9607 4.1444C65.3202 5.574 66 7.6426 66 10.3502V12.1697H54.2353C54.2561 12.9278 54.3817 13.5884 54.6117 14.1516C54.8417 14.6931 55.1451 15.1372 55.5214 15.4837C55.898 15.8303 56.3268 16.0903 56.8078 16.2635C57.3097 16.4151 57.8117 16.491 58.3137 16.491C59.3804 16.491 60.1855 16.3285 60.7293 16.0036C61.2731 15.6787 61.6601 15.2021 61.89 14.574H65.6862C65.3516 16.3718 64.5255 17.7256 63.2078 18.6354C61.89 19.5451 60.2587 20 58.3137 20ZM58.1569 5.50902C57.6757 5.50902 57.1947 5.574 56.7138 5.70395C56.2536 5.83393 55.8456 6.0397 55.49 6.3213C55.1347 6.60287 54.8417 6.98195 54.6117 7.45848C54.3817 7.935 54.2561 8.50903 54.2353 9.1805H61.9842C61.9632 8.4657 61.8482 7.87002 61.639 7.3935C61.4509 6.91695 61.1791 6.5379 60.8235 6.2563C60.4887 5.97473 60.0913 5.77977 59.6314 5.67147C59.1712 5.56317 58.6796 5.50902 58.1569 5.50902Z" fill="white"/>
<path d="M73.3936 5.52832H68V2H83V5.52832H77.6064V19H73.3936V5.52832Z" fill="white"/>
<path d="M92.5 20C91.3451 20 90.2439 19.8267 89.1962 19.4801C88.1697 19.1119 87.2717 18.5595 86.5019 17.8231C85.7321 17.0866 85.1225 16.166 84.6735 15.0614C84.2245 13.9567 84 12.657 84 11.1624V10.5126C84 9.10467 84.2245 7.87003 84.6735 6.80865C85.1225 5.74727 85.7321 4.8592 86.5019 4.1444C87.2717 3.4296 88.1697 2.8989 89.1962 2.55235C90.2439 2.1841 91.3451 2 92.5 2C93.6546 2 94.7453 2.1841 95.7717 2.55235C96.7982 2.8989 97.6962 3.4296 98.466 4.1444C99.2573 4.8592 99.8772 5.74727 100.326 6.80865C100.775 7.87003 101 9.10467 101 10.5126V11.1624C101 12.6354 100.775 13.9242 100.326 15.0289C99.8772 16.1336 99.2573 17.0541 98.466 17.7906C97.6962 18.5271 96.7982 19.0794 95.7717 19.4476C94.7453 19.8159 93.6546 20 92.5 20ZM92.5 16.361C93.6974 16.361 94.6917 15.9278 95.483 15.0614C96.2956 14.195 96.7018 12.8953 96.7018 11.1624V10.5126C96.7018 8.9314 96.2956 7.72923 95.483 6.90613C94.6917 6.06138 93.6974 5.63898 92.5 5.63898C91.2812 5.63898 90.276 6.06138 89.4849 6.90613C88.6936 7.72923 88.2982 8.9314 88.2982 10.5126V11.1624C88.2982 12.917 88.6936 14.2274 89.4849 15.0938C90.276 15.9386 91.2812 16.361 92.5 16.361Z" fill="white"/>
<path d="M103.255 19C103.088 19 102.879 18.9895 102.628 18.9686C102.377 18.9686 102.167 18.9477 102 18.9059V15.1734C102.105 15.1943 102.262 15.2048 102.471 15.2048C102.868 15.2048 103.213 15.0898 103.506 14.8598C103.799 14.6088 104.039 14.1907 104.227 13.6052C104.437 13.0197 104.583 12.246 104.667 11.2841C104.771 10.3013 104.824 9.08857 104.824 7.64575V2H118V18.6236H113.859V5.4502H108.651V8.27306C108.651 10.4268 108.536 12.2042 108.306 13.6052C108.097 14.9852 107.762 16.0726 107.302 16.8671C106.863 17.6617 106.298 18.2159 105.608 18.5295C104.939 18.8432 104.154 19 103.255 19Z" fill="white"/>
<path d="M129.5 20C128.345 20 127.244 19.8267 126.196 19.4801C125.17 19.1119 124.272 18.5595 123.502 17.8231C122.732 17.0866 122.123 16.166 121.674 15.0614C121.224 13.9567 121 12.657 121 11.1624V10.5126C121 9.10467 121.224 7.87003 121.674 6.80865C122.123 5.74727 122.732 4.8592 123.502 4.1444C124.272 3.4296 125.17 2.8989 126.196 2.55235C127.244 2.1841 128.345 2 129.5 2C130.655 2 131.745 2.1841 132.772 2.55235C133.798 2.8989 134.696 3.4296 135.466 4.1444C136.257 4.8592 136.877 5.74727 137.326 6.80865C137.775 7.87003 138 9.10467 138 10.5126V11.1624C138 12.6354 137.775 13.9242 137.326 15.0289C136.877 16.1336 136.257 17.0541 135.466 17.7906C134.696 18.5271 133.798 19.0794 132.772 19.4476C131.745 19.8159 130.655 20 129.5 20ZM129.5 16.361C130.697 16.361 131.692 15.9278 132.483 15.0614C133.296 14.195 133.702 12.8953 133.702 11.1624V10.5126C133.702 8.9314 133.296 7.72923 132.483 6.90613C131.692 6.06138 130.697 5.63898 129.5 5.63898C128.281 5.63898 127.276 6.06138 126.485 6.90613C125.694 7.72923 125.298 8.9314 125.298 10.5126V11.1624C125.298 12.917 125.694 14.2274 126.485 15.0938C127.276 15.9386 128.281 16.361 129.5 16.361Z" fill="white"/>
<path d="M140 2H152V5.52832H144.169V19H140V2Z" fill="white"/>
<path d="M155 2H159.041V12.9057L166.265 2H170V19H165.959V8.09435L158.735 19H155V2Z" fill="white"/>
<path d="M177.194 12.617C175.949 12.1893 175.041 11.5478 174.469 10.6925C173.898 9.8371 173.612 8.83207 173.612 7.67735C173.612 6.84341 173.745 6.08429 174.01 5.40001C174.296 4.69435 174.714 4.0956 175.265 3.60377C175.816 3.09057 176.51 2.69497 177.347 2.417C178.204 2.139 179.204 2 180.347 2H188V19H183.959V13.1302H181.051L177.531 19H173L177.194 12.617ZM177.653 7.67735C177.653 8.40441 177.878 8.93901 178.326 9.28113C178.796 9.62327 179.418 9.79435 180.194 9.79435H183.959V5.52832H180.194C179.418 5.52832 178.796 5.71006 178.326 6.07358C177.878 6.41572 177.653 6.95032 177.653 7.67735Z" fill="white"/>
<path fill-rule="evenodd" clip-rule="evenodd" d="M5.40466 11.0161C5.27117 11.0054 5.13622 11 5 11C2.23858 11 0 13.2386 0 16C0 18.7614 2.23858 21 5 21C7.76142 21 10 18.7614 10 16C10 15.788 9.9868 15.5791 9.96119 15.3741C7.59671 15.1847 5.69615 13.3504 5.40466 11.0161Z" fill="white"/>
<path fill-rule="evenodd" clip-rule="evenodd" d="M10 5C10 2.23859 7.76142 0 5 0C2.23858 0 2.74342e-07 2.23859 0 5C-4.96739e-07 7.76142 2.23858 10 5 10C5.12788 10 5.25463 9.9952 5.38007 9.98578C5.56488 7.52737 7.52737 5.56488 9.98578 5.38007C9.9952 5.25463 10 5.12788 10 5Z" fill="white"/>
<path fill-rule="evenodd" clip-rule="evenodd" d="M15.3741 9.96119C15.5791 9.9868 15.788 10 16 10C18.7614 10 21 7.76142 21 5C21 2.23859 18.7614 0 16 0C13.2386 0 11 2.23859 11 5C11 5.13622 11.0054 5.27117 11.0161 5.40466C13.3504 5.69615 15.1847 7.59671 15.3741 9.96119Z" fill="white"/>
<path fill-rule="evenodd" clip-rule="evenodd" d="M11.0421 15.3481C11.0143 15.5615 11 15.7791 11 16C11 18.7614 13.2386 21 16 21C18.7614 21 21 18.7614 21 16C21 13.2386 18.7614 11 16 11C15.7791 11 15.5615 11.0143 15.3481 11.0421C15.0565 13.2822 13.2822 15.0565 11.0421 15.3481Z" fill="white"/>
</svg>
